<svg xmlns="http://www.w3.org/2000/svg" xmlns:xlink="http://www.w3.org/1999/xlink" width="71" zoomAndPan="magnify" viewBox="0 0 53.25 56.999997" height="76" preserveAspectRatio="xMidYMid meet" version="1.0"><defs><clipPath id="691641fde2"><path d="M 0 0.394531 L 52.511719 0.394531 L 52.511719 56.601562 L 0 56.601562 Z M 0 0.394531 " clip-rule="nonzero"/></clipPath><clipPath id="1c019ca723"><path d="M 0 0.394531 L 52.511719 0.394531 L 52.511719 55.863281 L 0 55.863281 Z M 0 0.394531 " clip-rule="nonzero"/></clipPath><clipPath id="b3223d4e31"><path d="M 22 1.457031 L 33 1.457031 L 33 12 L 22 12 Z M 22 1.457031 " clip-rule="nonzero"/></clipPath></defs><g clip-path="url(#691641fde2)"><path fill="#ffffff" d="M 0 0.394531 L 52.511719 0.394531 L 52.511719 56.605469 L 0 56.605469 Z M 0 0.394531 " fill-opacity="1" fill-rule="nonzero"/><path fill="#ffffff" d="M 0 0.394531 L 52.511719 0.394531 L 52.511719 56.605469 L 0 56.605469 Z M 0 0.394531 " fill-opacity="1" fill-rule="nonzero"/></g><g clip-path="url(#1c019ca723)"><path fill="#661f19" d="M 43.976562 3.28125 C 48.089844 5.96875 50.585938 11.121094 51.753906 16.175781 C 52.917969 21.195312 52.757812 26.121094 51.980469 30.882812 C 51.234375 35.679688 49.90625 40.3125 47.214844 44.332031 C 44.527344 48.347656 40.542969 51.75 35.8125 53.53125 C 31.050781 55.347656 25.605469 55.539062 20.941406 53.824219 C 16.308594 52.074219 12.453125 48.414062 8.917969 44.394531 C 5.386719 40.410156 2.148438 36.101562 0.882812 31.144531 C -0.410156 26.1875 0.238281 20.582031 2.503906 15.753906 C 4.773438 10.925781 8.660156 6.875 13.261719 4.414062 C 17.828125 1.949219 23.144531 1.078125 28.652344 0.753906 C 34.160156 0.394531 39.863281 0.621094 43.976562 3.28125 Z M 43.976562 3.28125 " fill-opacity="1" fill-rule="nonzero"/></g><path fill="#dcc8ac" d="M 43.96875 11.625 C 42.644531 8.015625 12.53125 8.074219 11.847656 10.023438 C 9.386719 17.046875 7.65625 53.878906 10.550781 54.1875 C 18.542969 55.039062 44.878906 56.554688 44.859375 53.054688 C 44.839844 49.941406 47.265625 20.625 43.96875 11.625 Z M 43.96875 11.625 " fill-opacity="1" fill-rule="nonzero"/><path fill="#414370" d="M 45.007812 49.90625 C 45.003906 49.90625 45 49.90625 44.992188 49.90625 C 44.851562 49.898438 44.742188 49.777344 44.75 49.632812 L 44.785156 49 C 45.269531 40.027344 46.402344 19.023438 43.726562 11.714844 C 43.609375 11.394531 43.007812 10.765625 40.3125 10.179688 C 40.175781 10.148438 40.085938 10.011719 40.117188 9.871094 C 40.148438 9.730469 40.285156 9.644531 40.421875 9.671875 C 42.695312 10.167969 43.933594 10.78125 44.210938 11.539062 C 46.921875 18.945312 45.785156 40.023438 45.300781 49.027344 L 45.265625 49.660156 C 45.257812 49.800781 45.144531 49.90625 45.007812 49.90625 Z M 45.007812 49.90625 " fill-opacity="1" fill-rule="nonzero"/><path fill="#ffffff" d="M 40.984375 13.636719 C 39.898438 10.382812 15.199219 10.4375 14.636719 12.195312 C 12.621094 18.519531 11.199219 51.714844 13.574219 51.992188 C 20.128906 52.761719 41.730469 54.128906 41.714844 50.972656 C 41.695312 48.164062 43.6875 21.746094 40.984375 13.636719 Z M 40.984375 13.636719 " fill-opacity="1" fill-rule="nonzero"/><path fill="#414370" d="M 25.269531 53.09375 C 25.265625 53.09375 25.261719 53.09375 25.257812 53.09375 C 20.546875 52.90625 15.980469 52.535156 13.542969 52.25 C 13.382812 52.230469 13.238281 52.140625 13.113281 51.976562 C 11.300781 49.621094 12.105469 26.496094 13.605469 16.050781 C 13.625 15.910156 13.757812 15.8125 13.898438 15.832031 C 14.039062 15.855469 14.136719 15.984375 14.117188 16.125 C 12.5625 26.929688 11.953125 49.625 13.523438 51.664062 C 13.566406 51.722656 13.597656 51.738281 13.605469 51.738281 C 16.03125 52.023438 20.582031 52.390625 25.277344 52.578125 C 25.421875 52.582031 25.53125 52.703125 25.523438 52.847656 C 25.519531 52.984375 25.40625 53.09375 25.269531 53.09375 Z M 25.269531 53.09375 " fill-opacity="1" fill-rule="nonzero"/><path fill="#cd5b37" d="M 21.550781 23.671875 C 21.542969 22.609375 21.578125 21.542969 21.503906 20.484375 C 21.457031 19.835938 21.46875 19.183594 21.390625 18.542969 C 21.347656 18.183594 21.292969 17.953125 20.402344 18.03125 C 20.226562 18.03125 19.75 18.039062 19.589844 18.042969 C 18.796875 18.054688 18.734375 18.164062 18.621094 18.785156 C 18.328125 20.335938 18.476562 21.921875 18.421875 23.488281 C 18.402344 24.054688 18.492188 25.425781 18.488281 25.960938 C 18.488281 26.566406 20.800781 26.304688 21.503906 26.15625 C 21.757812 26.105469 21.554688 24.511719 21.550781 23.671875 Z M 21.550781 23.671875 " fill-opacity="1" fill-rule="nonzero"/><path fill="#cd5b37" d="M 21.34375 20.65625 C 20.40625 20.660156 19.46875 20.625 18.535156 20.699219 C 17.960938 20.746094 17.382812 20.738281 16.816406 20.8125 C 16.503906 20.855469 16.296875 20.910156 16.367188 21.800781 C 16.367188 21.980469 16.375 22.457031 16.378906 22.613281 C 16.390625 23.40625 16.484375 23.46875 17.03125 23.585938 C 18.402344 23.875 19.800781 23.726562 21.179688 23.78125 C 21.679688 23.800781 22.890625 23.714844 23.363281 23.714844 C 23.894531 23.71875 23.664062 21.402344 23.535156 20.699219 C 23.488281 20.445312 22.085938 20.648438 21.34375 20.65625 Z M 21.34375 20.65625 " fill-opacity="1" fill-rule="nonzero"/><path fill="#cd5b37" d="M 35.160156 19.847656 C 33.34375 19.847656 31.523438 19.835938 29.71875 19.863281 C 28.609375 19.878906 27.492188 19.875 26.398438 19.898438 C 25.789062 19.914062 25.390625 19.929688 25.527344 20.226562 C 25.527344 20.285156 25.542969 20.441406 25.546875 20.492188 C 25.566406 20.757812 25.75 20.777344 26.8125 20.816406 C 29.460938 20.910156 32.167969 20.863281 34.84375 20.878906 C 35.8125 20.886719 38.148438 20.859375 39.0625 20.859375 C 40.09375 20.859375 39.648438 20.09375 39.398438 19.863281 C 39.308594 19.777344 36.589844 19.84375 35.160156 19.847656 Z M 35.160156 19.847656 " fill-opacity="1" fill-rule="nonzero"/><path fill="#cd5b37" d="M 35.160156 23.28125 C 33.34375 23.285156 31.523438 23.269531 29.71875 23.296875 C 28.609375 23.3125 27.492188 23.308594 26.398438 23.332031 C 25.789062 23.347656 25.390625 23.367188 25.527344 23.660156 C 25.527344 23.71875 25.542969 23.875 25.546875 23.929688 C 25.566406 24.191406 25.75 24.210938 26.8125 24.25 C 29.460938 24.34375 32.167969 24.296875 34.84375 24.316406 C 35.8125 24.320312 38.148438 24.292969 39.0625 24.292969 C 40.09375 24.292969 39.648438 23.527344 39.398438 23.296875 C 39.308594 23.210938 36.589844 23.277344 35.160156 23.28125 Z M 35.160156 23.28125 " fill-opacity="1" fill-rule="nonzero"/><path fill="#cd5b37" d="M 35.160156 26.714844 C 33.34375 26.71875 31.523438 26.707031 29.71875 26.730469 C 28.609375 26.746094 27.492188 26.742188 26.398438 26.769531 C 25.789062 26.78125 25.390625 26.800781 25.527344 27.09375 C 25.527344 27.152344 25.542969 27.3125 25.546875 27.363281 C 25.566406 27.625 25.75 27.644531 26.8125 27.683594 C 29.460938 27.78125 32.167969 27.730469 34.84375 27.75 C 35.8125 27.753906 38.148438 27.726562 39.0625 27.726562 C 40.09375 27.726562 39.648438 26.964844 39.398438 26.730469 C 39.308594 26.644531 36.589844 26.714844 35.160156 26.714844 Z M 35.160156 26.714844 " fill-opacity="1" fill-rule="nonzero"/><path fill="#cd5b37" d="M 31.894531 30.152344 C 28.777344 30.152344 25.652344 30.140625 22.546875 30.164062 C 20.648438 30.179688 18.730469 30.175781 16.847656 30.203125 C 15.804688 30.21875 15.117188 30.234375 15.355469 30.53125 L 15.355469 30.527344 C 15.355469 30.589844 15.378906 30.746094 15.386719 30.796875 C 15.421875 31.058594 15.738281 31.082031 17.5625 31.117188 C 22.113281 31.214844 26.761719 31.164062 31.351562 31.183594 C 33.011719 31.191406 37.023438 31.160156 38.597656 31.160156 C 40.371094 31.164062 39.605469 30.398438 39.171875 30.164062 C 39.019531 30.082031 34.351562 30.148438 31.894531 30.152344 Z M 31.894531 30.152344 " fill-opacity="1" fill-rule="nonzero"/><path fill="#cd5b37" d="M 31.894531 33.585938 C 28.777344 33.585938 25.652344 33.574219 22.546875 33.601562 C 20.648438 33.617188 18.730469 33.613281 16.847656 33.636719 C 15.804688 33.652344 15.117188 33.671875 15.355469 33.964844 C 15.355469 34.023438 15.378906 34.179688 15.386719 34.234375 C 15.421875 34.496094 15.738281 34.515625 17.5625 34.554688 C 22.113281 34.648438 26.761719 34.601562 31.351562 34.617188 C 33.011719 34.625 37.023438 34.597656 38.597656 34.597656 C 40.371094 34.597656 39.605469 33.832031 39.171875 33.601562 C 39.019531 33.515625 34.351562 33.582031 31.894531 33.585938 Z M 31.894531 33.585938 " fill-opacity="1" fill-rule="nonzero"/><path fill="#cd5b37" d="M 31.894531 37.019531 C 28.777344 37.023438 25.652344 37.007812 22.546875 37.035156 C 20.648438 37.050781 18.730469 37.046875 16.847656 37.070312 C 15.804688 37.085938 15.117188 37.105469 15.355469 37.398438 C 15.355469 37.457031 15.378906 37.613281 15.386719 37.667969 C 15.421875 37.929688 15.738281 37.949219 17.5625 37.988281 C 22.113281 38.082031 26.761719 38.035156 31.351562 38.054688 C 33.011719 38.058594 37.023438 38.03125 38.597656 38.03125 C 40.371094 38.03125 39.605469 37.265625 39.171875 37.035156 C 39.019531 36.949219 34.351562 37.019531 31.894531 37.019531 Z M 31.894531 37.019531 " fill-opacity="1" fill-rule="nonzero"/><path fill="#cd5b37" d="M 31.894531 40.453125 C 28.777344 40.457031 25.652344 40.445312 22.546875 40.46875 C 20.648438 40.484375 18.730469 40.480469 16.847656 40.507812 C 15.804688 40.519531 15.117188 40.539062 15.355469 40.832031 C 15.355469 40.890625 15.378906 41.050781 15.386719 41.101562 C 15.421875 41.363281 15.738281 41.382812 17.5625 41.421875 C 22.113281 41.519531 26.761719 41.46875 31.351562 41.488281 C 33.011719 41.492188 37.023438 41.464844 38.597656 41.464844 C 40.371094 41.464844 39.605469 40.699219 39.171875 40.46875 C 39.019531 40.386719 34.351562 40.453125 31.894531 40.453125 Z M 31.894531 40.453125 " fill-opacity="1" fill-rule="nonzero"/><path fill="#cd5b37" d="M 31.894531 43.890625 C 28.777344 43.890625 25.652344 43.878906 22.546875 43.902344 C 20.648438 43.917969 18.730469 43.917969 16.847656 43.941406 C 15.804688 43.957031 15.117188 43.972656 15.355469 44.269531 L 15.355469 44.265625 C 15.355469 44.328125 15.378906 44.484375 15.386719 44.535156 C 15.421875 44.796875 15.738281 44.820312 17.5625 44.855469 C 22.113281 44.953125 26.761719 44.902344 31.351562 44.921875 C 33.011719 44.929688 37.023438 44.898438 38.597656 44.898438 C 40.371094 44.902344 39.605469 44.136719 39.171875 43.902344 C 39.019531 43.820312 34.351562 43.886719 31.894531 43.890625 Z M 31.894531 43.890625 " fill-opacity="1" fill-rule="nonzero"/><path fill="#de934e" d="M 37.421875 12.929688 C 39.511719 12.929688 39.875 8.1875 38.859375 7.832031 C 35.210938 6.550781 16.050781 5.648438 15.890625 7.15625 C 15.449219 11.3125 14.660156 12.589844 16.480469 12.578125 C 18.101562 12.570312 33.246094 12.929688 37.421875 12.929688 Z M 37.421875 12.929688 " fill-opacity="1" fill-rule="nonzero"/><g clip-path="url(#b3223d4e31)"><path fill="#de934e" d="M 32.039062 5.238281 C 31.707031 3.660156 29.824219 2.316406 28.128906 1.863281 C 26.75 1.496094 25.152344 1.746094 24.070312 2.738281 C 21.109375 5.445312 22.890625 10.714844 26.929688 11.023438 C 30.132812 11.265625 32.691406 8.339844 32.039062 5.238281 Z M 32.039062 5.238281 " fill-opacity="1" fill-rule="nonzero"/></g><path fill="#ffffff" d="M 29.132812 5.941406 C 29.007812 5.347656 28.296875 4.839844 27.65625 4.667969 C 27.136719 4.53125 26.53125 4.625 26.125 4.996094 C 25.003906 6.023438 25.679688 8.011719 27.203125 8.128906 C 28.414062 8.21875 29.378906 7.113281 29.132812 5.941406 Z M 29.132812 5.941406 " fill-opacity="1" fill-rule="nonzero"/></svg>